<mxfile host="app.diagrams.net" modified="2022-08-31T04:43:24.990Z" agent="5.0 (Windows NT 10.0; Win64; x64) AppleWebKit/537.36 (KHTML, like Gecko) Chrome/104.0.0.0 Safari/537.36" etag="SRQchqQ7oN1a7MVkYwfU" version="20.2.7" type="github">
  <diagram name="Page-1" id="c4acf3e9-155e-7222-9cf6-157b1a14988f">
    <mxGraphModel dx="1888" dy="539" grid="1" gridSize="10" guides="1" tooltips="1" connect="1" arrows="1" fold="1" page="1" pageScale="1" pageWidth="850" pageHeight="1100" background="none" math="0" shadow="0">
      <root>
        <mxCell id="0" />
        <mxCell id="1" parent="0" />
        <mxCell id="69rzAxIUWOi3fz0rPGxb-6" value="DeptAbility 部门能力值" style="swimlane;fontStyle=0;childLayout=stackLayout;horizontal=1;startSize=26;fillColor=#e1d5e7;horizontalStack=0;resizeParent=1;resizeParentMax=0;resizeLast=0;collapsible=1;marginBottom=0;rounded=0;shadow=0;fontFamily=Helvetica;verticalAlign=middle;strokeColor=#9673a6;" parent="1" vertex="1">
          <mxGeometry x="110" y="60" width="240" height="122" as="geometry">
            <mxRectangle x="90" y="140" width="100" height="26" as="alternateBounds" />
          </mxGeometry>
        </mxCell>
        <mxCell id="69rzAxIUWOi3fz0rPGxb-7" value="- deptld: Long&lt;span style=&quot;white-space: pre&quot;&gt;	&lt;/span&gt;部门id" style="text;strokeColor=none;fillColor=none;align=left;verticalAlign=top;spacingLeft=4;spacingRight=4;overflow=hidden;rotatable=0;points=[[0,0.5],[1,0.5]];portConstraint=eastwest;rounded=0;shadow=0;fontFamily=Helvetica;html=1;" parent="69rzAxIUWOi3fz0rPGxb-6" vertex="1">
          <mxGeometry y="26" width="240" height="26" as="geometry" />
        </mxCell>
        <mxCell id="69rzAxIUWOi3fz0rPGxb-8" value="- value: String&lt;span style=&quot;white-space: pre&quot;&gt;	&lt;/span&gt;能力值" style="text;strokeColor=none;fillColor=none;align=left;verticalAlign=top;spacingLeft=4;spacingRight=4;overflow=hidden;rotatable=0;points=[[0,0.5],[1,0.5]];portConstraint=eastwest;rounded=0;shadow=0;fontFamily=Helvetica;html=1;" parent="69rzAxIUWOi3fz0rPGxb-6" vertex="1">
          <mxGeometry y="52" width="240" height="26" as="geometry" />
        </mxCell>
        <mxCell id="69rzAxIUWOi3fz0rPGxb-11" value="- description: String&lt;span style=&quot;white-space: pre&quot;&gt;	&lt;/span&gt;描述" style="text;strokeColor=none;fillColor=none;align=left;verticalAlign=top;spacingLeft=4;spacingRight=4;overflow=hidden;rotatable=0;points=[[0,0.5],[1,0.5]];portConstraint=eastwest;rounded=0;shadow=0;fontFamily=Helvetica;html=1;" parent="69rzAxIUWOi3fz0rPGxb-6" vertex="1">
          <mxGeometry y="78" width="240" height="22" as="geometry" />
        </mxCell>
        <mxCell id="3VqYrRItZQPT0KPlV_Xw-1" value="- seq: Integer&lt;span style=&quot;white-space: pre&quot;&gt;	&lt;/span&gt;排序" style="text;strokeColor=none;fillColor=none;align=left;verticalAlign=top;spacingLeft=4;spacingRight=4;overflow=hidden;rotatable=0;points=[[0,0.5],[1,0.5]];portConstraint=eastwest;rounded=0;shadow=0;fontFamily=Helvetica;html=1;" vertex="1" parent="69rzAxIUWOi3fz0rPGxb-6">
          <mxGeometry y="100" width="240" height="22" as="geometry" />
        </mxCell>
        <mxCell id="69rzAxIUWOi3fz0rPGxb-12" value="UserAbility    用户能力值" style="swimlane;fontStyle=0;childLayout=stackLayout;horizontal=1;startSize=26;fillColor=#e1d5e7;horizontalStack=0;resizeParent=1;resizeParentMax=0;resizeLast=0;collapsible=1;marginBottom=0;rounded=0;shadow=0;strokeColor=#9673a6;html=0;" parent="1" vertex="1">
          <mxGeometry x="450" y="160" width="320" height="78" as="geometry" />
        </mxCell>
        <mxCell id="69rzAxIUWOi3fz0rPGxb-13" value="- userId: Long    用户id" style="text;strokeColor=none;fillColor=none;align=left;verticalAlign=top;spacingLeft=4;spacingRight=4;overflow=hidden;rotatable=0;points=[[0,0.5],[1,0.5]];portConstraint=eastwest;rounded=0;shadow=0;startSize=26;html=0;" parent="69rzAxIUWOi3fz0rPGxb-12" vertex="1">
          <mxGeometry y="26" width="320" height="26" as="geometry" />
        </mxCell>
        <mxCell id="69rzAxIUWOi3fz0rPGxb-14" value="- abilityIds: Set&lt;Long&gt;    用户能力值集合" style="text;strokeColor=none;fillColor=none;align=left;verticalAlign=top;spacingLeft=4;spacingRight=4;overflow=hidden;rotatable=0;points=[[0,0.5],[1,0.5]];portConstraint=eastwest;rounded=0;shadow=0;startSize=26;html=0;" parent="69rzAxIUWOi3fz0rPGxb-12" vertex="1">
          <mxGeometry y="52" width="320" height="26" as="geometry" />
        </mxCell>
        <mxCell id="69rzAxIUWOi3fz0rPGxb-18" value="Use" style="endArrow=open;endSize=12;dashed=1;html=1;rounded=0;fontFamily=Helvetica;edgeStyle=orthogonalEdgeStyle;exitX=1;exitY=0.5;exitDx=0;exitDy=0;entryX=0;entryY=0.5;entryDx=0;entryDy=0;" parent="1" source="69rzAxIUWOi3fz0rPGxb-8" target="69rzAxIUWOi3fz0rPGxb-14" edge="1">
          <mxGeometry width="160" relative="1" as="geometry">
            <mxPoint x="240" y="110" as="sourcePoint" />
            <mxPoint x="400" y="110" as="targetPoint" />
          </mxGeometry>
        </mxCell>
        <mxCell id="69rzAxIUWOi3fz0rPGxb-19" value="UserUtilization    稼动率" style="swimlane;fontStyle=0;childLayout=stackLayout;horizontal=1;startSize=26;fillColor=#e1d5e7;horizontalStack=0;resizeParent=1;resizeParentMax=0;resizeLast=0;collapsible=1;marginBottom=0;rounded=0;shadow=0;strokeColor=#9673a6;html=0;" parent="1" vertex="1">
          <mxGeometry x="40" y="250" width="310" height="100" as="geometry" />
        </mxCell>
        <mxCell id="69rzAxIUWOi3fz0rPGxb-20" value="- userId: Long    用户id" style="text;strokeColor=none;fillColor=none;align=left;verticalAlign=top;spacingLeft=4;spacingRight=4;overflow=hidden;rotatable=0;points=[[0,0.5],[1,0.5]];portConstraint=eastwest;rounded=0;shadow=0;startSize=26;html=0;" parent="69rzAxIUWOi3fz0rPGxb-19" vertex="1">
          <mxGeometry y="26" width="310" height="26" as="geometry" />
        </mxCell>
        <mxCell id="69rzAxIUWOi3fz0rPGxb-21" value="- effectiveTimeRate: BigDecimal    额定稼动率" style="text;strokeColor=none;fillColor=none;align=left;verticalAlign=top;spacingLeft=4;spacingRight=4;overflow=hidden;rotatable=0;points=[[0,0.5],[1,0.5]];portConstraint=eastwest;rounded=0;shadow=0;startSize=26;html=0;" parent="69rzAxIUWOi3fz0rPGxb-19" vertex="1">
          <mxGeometry y="52" width="310" height="22" as="geometry" />
        </mxCell>
        <mxCell id="69rzAxIUWOi3fz0rPGxb-22" value="- history: List&lt;RateVersion&gt;    履历" style="text;strokeColor=none;fillColor=none;align=left;verticalAlign=top;spacingLeft=4;spacingRight=4;overflow=hidden;rotatable=0;points=[[0,0.5],[1,0.5]];portConstraint=eastwest;rounded=0;shadow=0;startSize=26;html=0;" parent="69rzAxIUWOi3fz0rPGxb-19" vertex="1">
          <mxGeometry y="74" width="310" height="26" as="geometry" />
        </mxCell>
        <mxCell id="69rzAxIUWOi3fz0rPGxb-25" value="UserUtilizationRecord 稼动履历" style="swimlane;fontStyle=0;childLayout=stackLayout;horizontal=1;startSize=26;fillColor=#E6D0DE;horizontalStack=0;resizeParent=1;resizeParentMax=0;resizeLast=0;collapsible=1;marginBottom=0;rounded=0;shadow=0;strokeColor=#6c8ebf;html=0;" parent="1" vertex="1">
          <mxGeometry x="425" y="330" width="290" height="104" as="geometry" />
        </mxCell>
        <mxCell id="3VqYrRItZQPT0KPlV_Xw-6" value="+ userId: Long    用户ID" style="text;strokeColor=none;fillColor=none;align=left;verticalAlign=top;spacingLeft=4;spacingRight=4;overflow=hidden;rotatable=0;points=[[0,0.5],[1,0.5]];portConstraint=eastwest;rounded=0;shadow=0;startSize=26;html=0;" vertex="1" parent="69rzAxIUWOi3fz0rPGxb-25">
          <mxGeometry y="26" width="290" height="26" as="geometry" />
        </mxCell>
        <mxCell id="69rzAxIUWOi3fz0rPGxb-26" value="+ ratedUtilization: BigDecimal    稼动率" style="text;strokeColor=none;fillColor=none;align=left;verticalAlign=top;spacingLeft=4;spacingRight=4;overflow=hidden;rotatable=0;points=[[0,0.5],[1,0.5]];portConstraint=eastwest;rounded=0;shadow=0;startSize=26;html=0;" parent="69rzAxIUWOi3fz0rPGxb-25" vertex="1">
          <mxGeometry y="52" width="290" height="26" as="geometry" />
        </mxCell>
        <mxCell id="69rzAxIUWOi3fz0rPGxb-27" value="+ expireDate: Date    更新时间" style="text;strokeColor=none;fillColor=none;align=left;verticalAlign=top;spacingLeft=4;spacingRight=4;overflow=hidden;rotatable=0;points=[[0,0.5],[1,0.5]];portConstraint=eastwest;rounded=0;shadow=0;startSize=26;html=0;" parent="69rzAxIUWOi3fz0rPGxb-25" vertex="1">
          <mxGeometry y="78" width="290" height="26" as="geometry" />
        </mxCell>
        <mxCell id="3VqYrRItZQPT0KPlV_Xw-2" value="" style="shape=image;html=1;verticalAlign=top;verticalLabelPosition=bottom;labelBackgroundColor=#ffffff;imageAspect=0;aspect=fixed;image=https://cdn0.iconfinder.com/data/icons/evericons-16px/16/x-128.png;strokeColor=#FF3333;" vertex="1" parent="1">
          <mxGeometry x="570" y="150" width="250" height="100" as="geometry" />
        </mxCell>
        <mxCell id="3VqYrRItZQPT0KPlV_Xw-3" value="直接放在用户表&amp;nbsp; ID集合用逗号隔开" style="text;html=1;strokeColor=none;fillColor=none;align=center;verticalAlign=middle;whiteSpace=wrap;rounded=0;fontColor=#FF8000;fontStyle=1;fontSize=15;" vertex="1" parent="1">
          <mxGeometry x="480" y="126" width="260" height="34" as="geometry" />
        </mxCell>
        <mxCell id="3VqYrRItZQPT0KPlV_Xw-5" value="直接放在用户表 用ratedUtilization表示" style="text;html=1;strokeColor=none;fillColor=none;align=center;verticalAlign=middle;whiteSpace=wrap;rounded=0;fontColor=#FF8000;fontStyle=1;fontSize=15;" vertex="1" parent="1">
          <mxGeometry x="50" y="216" width="290" height="34" as="geometry" />
        </mxCell>
        <mxCell id="3VqYrRItZQPT0KPlV_Xw-4" value="" style="shape=image;html=1;verticalAlign=top;verticalLabelPosition=bottom;labelBackgroundColor=#ffffff;imageAspect=0;aspect=fixed;image=https://cdn0.iconfinder.com/data/icons/evericons-16px/16/x-128.png;strokeColor=#FF3333;" vertex="1" parent="1">
          <mxGeometry x="-90" y="263" width="310" height="100" as="geometry" />
        </mxCell>
      </root>
    </mxGraphModel>
  </diagram>
</mxfile>
